<svg width="257" height="128" viewBox="0 0 257 128" fill="none" xmlns="http://www.w3.org/2000/svg">
<path fill-rule="evenodd" clip-rule="evenodd" d="M54.1389 111.965L0.66724 18.4825C-1.23939 15.1493 1.16733 11 5.0074 11H18.0284C21.5908 11 24.8843 12.8952 26.6743 15.9752L81.0212 109.488C82.9585 112.821 80.5536 117 76.6983 117H62.8192C59.2321 117 55.9199 115.079 54.1389 111.965ZM86.501 67.0595L57.9966 18.5324C56.0387 15.1992 58.4422 11 62.3079 11H194.692C198.558 11 200.961 15.1992 199.003 18.5324L170.499 67.0595C168.65 70.2065 164.162 70.3768 162.081 67.3789L132.607 24.9318C130.618 22.0675 126.382 22.0675 124.393 24.9318L94.9193 67.3789C92.8376 70.3768 88.3495 70.2065 86.501 67.0595ZM229.666 16.0176L175.942 109.509C174.027 112.842 176.433 117 180.277 117H192.939C196.519 117 199.826 115.086 201.61 111.982L255.333 18.4911C257.248 15.1578 254.842 11 250.997 11H238.337C234.757 11 231.45 12.9137 229.666 16.0176ZM157.678 109.48L132.941 62.256C131.07 58.6827 125.955 58.6827 124.083 62.256L99.3466 109.48C97.6027 112.809 100.017 116.8 103.776 116.8H153.249C157.007 116.8 159.422 112.809 157.678 109.48Z" fill="green"/>
</svg>
